<svg width="400" height="400" viewBox="0 0 400 400" fill="none" xmlns="http://www.w3.org/2000/svg">
  <rect width="400" height="400" fill="white" fill-opacity="0.01"/>
  <path d="M200 350C282.843 350 350 282.843 350 200C350 117.157 282.843 50 200 50C117.157 50 50 117.157 50 200C50 282.843 117.157 350 200 350Z" fill="#E6F7FF" fill-opacity="0.5"/>
  
  <!-- Doctor -->
  <path d="M150 120C150 120 140 130 140 140C140 150 150 160 150 160" stroke="#3FB6F6" stroke-width="3" stroke-linecap="round"/>
  <path d="M250 120C250 120 260 130 260 140C260 150 250 160 250 160" stroke="#3FB6F6" stroke-width="3" stroke-linecap="round"/>
  <rect x="150" y="100" width="100" height="120" rx="50" fill="#3FB6F6"/>
  <rect x="170" y="220" width="60" height="80" fill="#3FB6F6"/>
  <rect x="150" y="300" width="40" height="60" fill="#3FB6F6"/>
  <rect x="210" y="300" width="40" height="60" fill="#3FB6F6"/>
  <rect x="170" y="220" width="60" height="20" fill="white"/>
  <circle cx="185" cy="140" r="10" fill="white"/>
  <circle cx="215" cy="140" r="10" fill="white"/>
  <path d="M190 170C190 170 200 180 210 170" stroke="white" stroke-width="3" stroke-linecap="round"/>
  
  <!-- Patient -->
  <rect x="250" y="180" width="80" height="100" rx="40" fill="#34D399"/>
  <rect x="265" y="280" width="50" height="60" fill="#34D399"/>
  <rect x="250" y="340" width="30" height="40" fill="#34D399"/>
  <rect x="300" y="340" width="30" height="40" fill="#34D399"/>
  <circle cx="275" cy="210" r="8" fill="white"/>
  <circle cx="305" cy="210" r="8" fill="white"/>
  <path d="M280 235C280 235 290 245 300 235" stroke="white" stroke-width="3" stroke-linecap="round"/>
  
  <!-- Medical Chart -->
  <rect x="100" y="200" width="60" height="80" rx="5" fill="white" stroke="#3FB6F6" stroke-width="2"/>
  <line x1="110" y1="220" x2="150" y2="220" stroke="#3FB6F6" stroke-width="2" stroke-linecap="round"/>
  <line x1="110" y1="240" x2="150" y2="240" stroke="#3FB6F6" stroke-width="2" stroke-linecap="round"/>
  <line x1="110" y1="260" x2="150" y2="260" stroke="#3FB6F6" stroke-width="2" stroke-linecap="round"/>
  
  <!-- Health Icons -->
  <path d="M320 140C320 140 330 130 340 140C350 150 340 160 330 170C320 160 310 150 320 140Z" fill="#FF6B6B"/>
  <path d="M90 150L100 160L120 140" stroke="#34D399" stroke-width="3" stroke-linecap="round" stroke-linejoin="round"/>
</svg>
