<svg width="500" height="400" viewBox="0 0 500 400" fill="none" xmlns="http://www.w3.org/2000/svg">
  <rect width="500" height="400" fill="white" fill-opacity="0.01"/>
  <path d="M250 380C345.604 380 423 302.604 423 207C423 111.396 345.604 34 250 34C154.396 34 77 111.396 77 207C77 302.604 154.396 380 250 380Z" fill="#E6F7FF" fill-opacity="0.5"/>
  
  <!-- Doctor -->
  <rect x="150" y="100" width="90" height="110" rx="45" fill="#3FB6F6"/>
  <rect x="165" y="210" width="60" height="80" fill="#3FB6F6"/>
  <rect x="150" y="290" width="35" height="50" fill="#3FB6F6"/>
  <rect x="205" y="290" width="35" height="50" fill="#3FB6F6"/>
  <circle cx="175" cy="140" r="10" fill="white"/>
  <circle cx="215" cy="140" r="10" fill="white"/>
  <path d="M185 170C185 170 195 180 205 170" stroke="white" stroke-width="3" stroke-linecap="round"/>
  
  <!-- Patient -->
  <rect x="300" y="130" width="80" height="100" rx="40" fill="#34D399"/>
  <rect x="315" y="230" width="50" height="60" fill="#34D399"/>
  <rect x="300" y="290" width="30" height="40" fill="#34D399"/>
  <rect x="350" y="290" width="30" height="40" fill="#34D399"/>
  <circle cx="325" cy="160" r="8" fill="white"/>
  <circle cx="355" cy="160" r="8" fill="white"/>
  <path d="M330 185C330 185 340 195 350 185" stroke="white" stroke-width="3" stroke-linecap="round"/>
  
  <!-- Medical Records/Tablet -->
  <rect x="230" y="170" width="70" height="90" rx="5" fill="white" stroke="#3FB6F6" stroke-width="2"/>
  <line x1="240" y1="190" x2="290" y2="190" stroke="#3FB6F6" stroke-width="2" stroke-linecap="round"/>
  <line x1="240" y1="210" x2="290" y2="210" stroke="#3FB6F6" stroke-width="2" stroke-linecap="round"/>
  <line x1="240" y1="230" x2="290" y2="230" stroke="#3FB6F6" stroke-width="2" stroke-linecap="round"/>
  <line x1="240" y1="250" x2="270" y2="250" stroke="#3FB6F6" stroke-width="2" stroke-linecap="round"/>
  
  <!-- Health Icons -->
  <path d="M120 120C120 120 130 110 140 120C150 130 140 140 130 150C120 140 110 130 120 120Z" fill="#FF6B6B"/>
  <circle cx="380" cy="100" r="15" fill="#FFD166"/>
  <path d="M380 95V105" stroke="white" stroke-width="3" stroke-linecap="round"/>
  <path d="M375 100H385" stroke="white" stroke-width="3" stroke-linecap="round"/>
  
  <!-- Connection Lines -->
  <path d="M220 150C220 150 240 160 260 150" stroke="#3FB6F6" stroke-width="2" stroke-dasharray="4 4"/>
  <path d="M270 150C270 150 290 140 310 150" stroke="#34D399" stroke-width="2" stroke-dasharray="4 4"/>
  
  <!-- Digital Elements -->
  <circle cx="130" cy="220" r="10" fill="#3FB6F6" fill-opacity="0.5"/>
  <circle cx="150" cy="240" r="5" fill="#34D399" fill-opacity="0.5"/>
  <circle cx="370" cy="220" r="8" fill="#3FB6F6" fill-opacity="0.5"/>
  <circle cx="390" cy="240" r="4" fill="#34D399" fill-opacity="0.5"/>
  <path d="M100 260L110 270L130 250" stroke="#34D399" stroke-width="3" stroke-linecap="round" stroke-linejoin="round"/>
  <path d="M400 260L390 270L370 250" stroke="#3FB6F6" stroke-width="3" stroke-linecap="round" stroke-linejoin="round"/>
</svg>
